<?xml version="1.0" encoding="utf-8"?>
<!-- Generator: Adobe Illustrator 24.2.1, SVG Export Plug-In . SVG Version: 6.00 Build 0)  -->
<svg version="1.2" baseProfile="tiny" id="Layer_1" xmlns="http://www.w3.org/2000/svg" xmlns:xlink="http://www.w3.org/1999/xlink"
	 x="0px" y="0px" viewBox="0 0 57.1 97.1" overflow="visible" xml:space="preserve">
<path d="M20.3,19.2c1-0.3,2,0.2,2.3,1.1c0.1,0.2,0.1,0.5,0.1,0.7c0,2.2-3.2,2.6-3.9,0.8c-0.4-0.9,0-2,0.9-2.5
	C19.9,19.3,20.1,19.3,20.3,19.2 M20.8,20.8c0.6-0.1,0,0.7,0.2,1.2h0.8c0.2-0.9,0.2-2.1-0.8-2C21,20.3,20.9,20.5,20.8,20.8"/>
<path d="M6.1,0L6.1,0c1,0.6,2,1.2,3.1,1.6c-0.3,0.5-0.7,1-1,1.5C16.6,8.5,24.4,14,32.8,19c4,2.4,7.9,5.2,11.9,7.9s8.2,5.3,12.3,7.9
	V35c-2.3,2.3-4.2,4.6-6.5,7.2c-0.6,0.7-1.9,1.7-2,2.4c0,1.1,0.1,2.2,0.3,3.3c1.4,16.2,2.5,33.5,3.9,49.3h-6.9
	c-0.9-15.5-1.6-31.2-2.5-46.7c-0.8,0.7-1.6,1.5-2.2,2.3c-4.3,4.9-8.8,9.9-13.2,14.8c-0.8,0.7-1.5,1.6-2,2.6c-3-1.6-5.9-3.4-8.8-5.1
	c-3,10.8-6.2,21.3-9.1,32H1.1C4.8,85.5,8.6,74,12.3,62.4c-2.4-1.7-5.6-3.4-8.3-5c-1.1-0.7-2.5-1.9-3.9-1.8v-0.1
	c6.3-7,12.6-14,18.8-21.1c-5.1-3.2-10.4-6.7-15.2-9.8C3.9,16.9,4.2,8.7,4.4,1.2c0.3-0.3,1,0.5,1.3,0.1S5.9,0.4,6.1,0 M8.4,22.5
	c3.9,2.3,7.7,4.6,11.6,6.9c2.3-2.8,4.8-5.4,7.1-8.2c-6.2-4-12.3-8.1-18.6-12C8.6,13.7,8.4,18,8.4,22.5 M32.9,25.8
	c-8,9-16,18.2-23.9,27.4c5.6,3.4,11,7.1,16.6,10.5c8-9.2,15.9-18.4,23.7-27.7C43.7,32.6,38.4,29.1,32.9,25.8"/>
</svg>
